<svg width="12" height="12" viewBox="0 0 12 12" fill="none" xmlns="http://www.w3.org/2000/svg">
<path opacity="0.8" fill-rule="evenodd" clip-rule="evenodd" d="M3.59998 1.19998C3.44085 1.19998 3.28824 1.2632 3.17572 1.37572C3.0632 1.48824 2.99998 1.64085 2.99998 1.79998V2.39998H2.39998C2.08172 2.39998 1.7765 2.52641 1.55145 2.75145C1.32641 2.9765 1.19998 3.28172 1.19998 3.59998V9.59998C1.19998 9.91824 1.32641 10.2235 1.55145 10.4485C1.7765 10.6736 2.08172 10.8 2.39998 10.8H9.59998C9.91824 10.8 10.2235 10.6736 10.4485 10.4485C10.6736 10.2235 10.8 9.91824 10.8 9.59998V3.59998C10.8 3.28172 10.6736 2.9765 10.4485 2.75145C10.2235 2.52641 9.91824 2.39998 9.59998 2.39998H8.99998V1.79998C8.99998 1.64085 8.93677 1.48824 8.82424 1.37572C8.71172 1.2632 8.55911 1.19998 8.39998 1.19998C8.24085 1.19998 8.08824 1.2632 7.97572 1.37572C7.8632 1.48824 7.79998 1.64085 7.79998 1.79998V2.39998H4.19998V1.79998C4.19998 1.64085 4.13677 1.48824 4.02425 1.37572C3.91172 1.2632 3.75911 1.19998 3.59998 1.19998ZM3.59998 4.19998C3.44085 4.19998 3.28824 4.2632 3.17572 4.37572C3.0632 4.48824 2.99998 4.64085 2.99998 4.79998C2.99998 4.95911 3.0632 5.11172 3.17572 5.22425C3.28824 5.33677 3.44085 5.39998 3.59998 5.39998H8.39998C8.55911 5.39998 8.71172 5.33677 8.82424 5.22425C8.93677 5.11172 8.99998 4.95911 8.99998 4.79998C8.99998 4.64085 8.93677 4.48824 8.82424 4.37572C8.71172 4.2632 8.55911 4.19998 8.39998 4.19998H3.59998Z" fill="#C7CBD1" style="fill:#C7CBD1;fill:color(display-p3 0.7800 0.7947 0.8200);fill-opacity:1;"/>
</svg>
