<svg width="15" height="14" viewBox="0 0 15 14" fill="none" xmlns="http://www.w3.org/2000/svg">
<path d="M11.9401 4.2453C12.3333 4.83382 12.3333 5.65309 12.3333 7.29163C12.3333 8.93017 12.3333 9.74944 11.9401 10.338C11.7699 10.5927 11.5511 10.8115 11.2963 10.9817C10.7822 11.3253 10.092 11.3687 8.83333 11.3742V11.375L8.18842 12.6648C7.97344 13.0947 7.35989 13.0947 7.14492 12.6648L6.5 11.375V11.3742C5.24134 11.3687 4.55112 11.3253 4.037 10.9817C3.78223 10.8115 3.56347 10.5927 3.39324 10.338C3 9.74944 3 8.93017 3 7.29163C3 5.65309 3 4.83382 3.39324 4.2453C3.56347 3.99052 3.78223 3.77177 4.037 3.60154C4.62552 3.2083 5.44479 3.2083 7.08333 3.2083H8.25C9.88854 3.2083 10.7078 3.2083 11.2963 3.60154C11.5511 3.77177 11.7699 3.99052 11.9401 4.2453Z" stroke="#C7CBD1" style="stroke:#C7CBD1;stroke:color(display-p3 0.7800 0.7947 0.8200);stroke-opacity:1;" stroke-linecap="round" stroke-linejoin="round"/>
<path d="M5.91666 6.125L9.41666 6.125" stroke="#C7CBD1" style="stroke:#C7CBD1;stroke:color(display-p3 0.7800 0.7947 0.8200);stroke-opacity:1;" stroke-linecap="round" stroke-linejoin="round"/>
<path d="M5.91666 8.4583H7.66666" stroke="#C7CBD1" style="stroke:#C7CBD1;stroke:color(display-p3 0.7800 0.7947 0.8200);stroke-opacity:1;" stroke-linecap="round" stroke-linejoin="round"/>
</svg>
