<svg width="20" height="20" viewBox="0 0 20 20" fill="none" xmlns="http://www.w3.org/2000/svg">
<path d="M11.7064 9.99988C11.7064 10.9203 10.9404 11.6664 9.99544 11.6664C9.05052 11.6664 8.28451 10.9203 8.28451 9.99988C8.28451 9.07948 9.05052 8.33334 9.99544 8.33334C10.9404 8.33334 11.7064 9.07948 11.7064 9.99988Z" fill="#5A87D6" style="fill:#5A87D6;fill:color(display-p3 0.3537 0.5310 0.8384);fill-opacity:1;"/>
<path d="M6.75521 10.0003C6.75521 10.9207 5.98919 11.6668 5.04427 11.6668C4.09935 11.6668 3.33334 10.9207 3.33334 10.0003C3.33334 9.07987 4.09935 8.33373 5.04427 8.33373C5.98919 8.33373 6.75521 9.07987 6.75521 10.0003Z" fill="#5A87D6" style="fill:#5A87D6;fill:color(display-p3 0.3537 0.5310 0.8384);fill-opacity:1;"/>
<path d="M14.9564 11.6664C15.9014 11.6664 16.6674 10.9203 16.6674 9.99988C16.6674 9.07948 15.9014 8.33334 14.9564 8.33334C14.0115 8.33334 13.2455 9.07948 13.2455 9.99988C13.2455 10.9203 14.0115 11.6664 14.9564 11.6664Z" fill="#5A87D6" style="fill:#5A87D6;fill:color(display-p3 0.3537 0.5310 0.8384);fill-opacity:1;"/>
</svg>
