<svg width="22" height="22" viewBox="0 0 22 22" fill="none" xmlns="http://www.w3.org/2000/svg">
<path d="M11.0005 9.31106C10.0893 9.31106 9.3506 10.0694 9.3506 11.0049C9.3506 11.9404 10.0893 12.6987 11.0005 12.6987C11.9117 12.6987 12.6503 11.9404 12.6503 11.0049C12.6503 10.0694 11.9117 9.31106 11.0005 9.31106Z" fill="#8F96A3" style="fill:#8F96A3;fill:color(display-p3 0.5600 0.5893 0.6400);fill-opacity:1;"/>
<path d="M11.0002 14.2127C10.089 14.2127 9.35034 14.9711 9.35034 15.9065C9.35034 16.842 10.089 17.6004 11.0002 17.6004C11.9114 17.6004 12.6501 16.842 12.6501 15.9065C12.6501 14.9711 11.9114 14.2127 11.0002 14.2127Z" fill="#8F96A3" style="fill:#8F96A3;fill:color(display-p3 0.5600 0.5893 0.6400);fill-opacity:1;"/>
<path d="M9.3506 6.09351C9.3506 5.15804 10.0893 4.39969 11.0005 4.39969C11.9117 4.39969 12.6503 5.15804 12.6503 6.09351C12.6503 7.02899 11.9117 7.78734 11.0005 7.78734C10.0893 7.78734 9.3506 7.02899 9.3506 6.09351Z" fill="#8F96A3" style="fill:#8F96A3;fill:color(display-p3 0.5600 0.5893 0.6400);fill-opacity:1;"/>
</svg>
