<svg width="12" height="12" viewBox="0 0 12 12" fill="none" xmlns="http://www.w3.org/2000/svg">
<path fill-rule="evenodd" clip-rule="evenodd" d="M7.05406 1.2201C7.22039 1.26427 7.35975 1.37774 7.43671 1.53167C7.72685 2.11195 7.94339 2.46413 8.16124 2.74968C8.38176 3.03871 8.61502 3.27533 8.96985 3.63016C9.78984 4.45015 10.2 5.52607 10.2 6.60002C10.2 7.67396 9.78983 8.74988 8.96985 9.56986C7.32965 11.2101 4.67036 11.2101 3.03015 9.56986C2.21017 8.74988 1.8 7.67396 1.8 6.60002C1.8 5.52607 2.21017 4.45015 3.03015 3.63016C3.20175 3.45856 3.45982 3.40723 3.68403 3.5001C3.90823 3.59297 4.05442 3.81175 4.05442 4.05443C4.05442 4.72632 4.09638 5.23827 4.29289 5.64662C4.40095 5.87116 4.56951 6.09069 4.86003 6.28658C4.92941 5.65012 5.05651 4.87469 5.22825 4.13866C5.36347 3.55917 5.53164 2.98064 5.7318 2.49819C5.83192 2.25689 5.94513 2.02712 6.07371 1.82874C6.19887 1.63564 6.35967 1.43914 6.56724 1.30077C6.71043 1.20531 6.88773 1.17593 7.05406 1.2201Z" fill="#E4002B" style="fill:#E4002B;fill:color(display-p3 0.8941 0.0000 0.1686);fill-opacity:1;"/>
</svg>
