<svg width="20" height="20" viewBox="0 0 20 20" fill="none" xmlns="http://www.w3.org/2000/svg">
<path d="M9.74056 4C9.28032 4 8.90723 4.3731 8.90723 4.83333V8.90977H4.83333C4.3731 8.90977 4 9.28287 4 9.74311V10.2583C4 10.7185 4.3731 11.0916 4.83333 11.0916H8.90723V15.1667C8.90723 15.6269 9.28032 16 9.74056 16H10.2557C10.716 16 11.089 15.6269 11.089 15.1667V11.0916H15.1667C15.6269 11.0916 16 10.7185 16 10.2583V9.74311C16 9.28287 15.6269 8.90977 15.1667 8.90977H11.089V4.83333C11.089 4.3731 10.7159 4 10.2557 4H9.74056Z" fill="#5A87D6" style="fill:#5A87D6;fill:color(display-p3 0.3537 0.5310 0.8384);fill-opacity:1;"/>
</svg>
