<svg width="16" height="16" viewBox="0 0 16 16" fill="none" xmlns="http://www.w3.org/2000/svg">
<path d="M3.81453 9.45837C3.73334 9.65439 3.73334 9.90289 3.73334 10.3999C3.73334 10.8969 3.73334 11.1457 3.81453 11.3417C3.92279 11.6031 4.13031 11.8105 4.39168 11.9188C4.5877 12 4.8362 12 5.33321 12C5.83022 12 6.079 12 6.27502 11.9188C6.53639 11.8105 6.74385 11.6029 6.85211 11.3416C6.9333 11.1455 6.9333 10.897 6.9333 10.4C6.9333 9.90303 6.9333 9.65439 6.85211 9.45837C6.74385 9.197 6.53639 8.98948 6.27502 8.88122C6.079 8.80003 5.83022 8.80003 5.33321 8.80003C4.8362 8.80003 4.5877 8.80003 4.39168 8.88122C4.13031 8.98948 3.92279 9.197 3.81453 9.45837Z" stroke="#8F96A3" style="stroke:#8F96A3;stroke:color(display-p3 0.5600 0.5893 0.6400);stroke-opacity:1;" stroke-linecap="round" stroke-linejoin="round"/>
<path d="M3.81453 4.125C3.73334 4.32102 3.73334 4.56952 3.73334 5.06653C3.73334 5.56354 3.73334 5.81232 3.81453 6.00834C3.92279 6.26971 4.13031 6.47717 4.39168 6.58543C4.5877 6.66663 4.8362 6.66663 5.33321 6.66663C5.83022 6.66663 6.079 6.66663 6.27502 6.58543C6.53639 6.47717 6.74385 6.26957 6.85211 6.00821C6.9333 5.81218 6.9333 5.56368 6.9333 5.06667C6.9333 4.56966 6.9333 4.32102 6.85211 4.125C6.74385 3.86363 6.53639 3.65612 6.27502 3.54786C6.079 3.46666 5.83022 3.46666 5.33321 3.46666C4.8362 3.46666 4.5877 3.46666 4.39168 3.54786C4.13031 3.65612 3.92279 3.86363 3.81453 4.125Z" stroke="#8F96A3" style="stroke:#8F96A3;stroke:color(display-p3 0.5600 0.5893 0.6400);stroke-opacity:1;" stroke-linecap="round" stroke-linejoin="round"/>
<path d="M9.1479 4.125C9.06671 4.32102 9.06671 4.56952 9.06671 5.06653C9.06671 5.56354 9.06671 5.81232 9.1479 6.00834C9.25616 6.26971 9.46368 6.47717 9.72504 6.58543C9.92107 6.66663 10.1696 6.66663 10.6666 6.66663C11.1636 6.66663 11.4124 6.66663 11.6084 6.58543C11.8698 6.47717 12.0772 6.26957 12.1855 6.00821C12.2667 5.81218 12.2667 5.56368 12.2667 5.06667C12.2667 4.56966 12.2667 4.32102 12.1855 4.125C12.0772 3.86363 11.8698 3.65612 11.6084 3.54786C11.4124 3.46666 11.1636 3.46666 10.6666 3.46666C10.1696 3.46666 9.92107 3.46666 9.72504 3.54786C9.46368 3.65612 9.25616 3.86363 9.1479 4.125Z" stroke="#8F96A3" style="stroke:#8F96A3;stroke:color(display-p3 0.5600 0.5893 0.6400);stroke-opacity:1;" stroke-linecap="round" stroke-linejoin="round"/>
<path d="M9.1479 9.45837C9.06671 9.65439 9.06671 9.90289 9.06671 10.3999C9.06671 10.8969 9.06671 11.1457 9.1479 11.3417C9.25616 11.6031 9.46368 11.8105 9.72504 11.9188C9.92107 12 10.1696 12 10.6666 12C11.1636 12 11.4124 12 11.6084 11.9188C11.8698 11.8105 12.0772 11.6029 12.1855 11.3416C12.2667 11.1456 12.2667 10.897 12.2667 10.4C12.2667 9.90303 12.2667 9.65439 12.1855 9.45837C12.0772 9.197 11.8698 8.98948 11.6084 8.88122C11.4124 8.80003 11.1636 8.80003 10.6666 8.80003C10.1696 8.80003 9.92107 8.80003 9.72504 8.88122C9.46368 8.98948 9.25616 9.197 9.1479 9.45837Z" stroke="#8F96A3" style="stroke:#8F96A3;stroke:color(display-p3 0.5600 0.5893 0.6400);stroke-opacity:1;" stroke-linecap="round" stroke-linejoin="round"/>
</svg>
